<?xml version="1.0" encoding="UTF-8" standalone="no"?>
<!-- Created with Inkscape (http://www.inkscape.org/) -->

<svg
   width="96.708504mm"
   height="115.58298mm"
   viewBox="0 0 96.708504 115.58298"
   version="1.1"
   id="svg5"
   inkscape:version="1.2.2 (732a01da63, 2022-12-09)"
   sodipodi:docname="logo.svg"
   xml:space="preserve"
   xmlns:inkscape="http://www.inkscape.org/namespaces/inkscape"
   xmlns:sodipodi="http://sodipodi.sourceforge.net/DTD/sodipodi-0.dtd"
   xmlns="http://www.w3.org/2000/svg"
   xmlns:svg="http://www.w3.org/2000/svg"><sodipodi:namedview
     id="namedview7"
     pagecolor="#ffffff"
     bordercolor="#000000"
     borderopacity="0.25"
     inkscape:showpageshadow="2"
     inkscape:pageopacity="0.0"
     inkscape:pagecheckerboard="0"
     inkscape:deskcolor="#d1d1d1"
     inkscape:document-units="mm"
     showgrid="false"
     inkscape:lockguides="true"
     inkscape:zoom="1"
     inkscape:cx="128"
     inkscape:cy="137"
     inkscape:window-width="1920"
     inkscape:window-height="1171"
     inkscape:window-x="-9"
     inkscape:window-y="-9"
     inkscape:window-maximized="1"
     inkscape:current-layer="layer1" /><defs
     id="defs2"><marker
       style="overflow:visible"
       id="Arrow5"
       refX="0"
       refY="0"
       orient="auto-start-reverse"
       inkscape:stockid="Arrow5"
       markerWidth="5.8874264"
       markerHeight="6.6094756"
       viewBox="0 0 5.8874262 6.6094758"
       inkscape:isstock="true"
       inkscape:collect="always"
       preserveAspectRatio="xMidYMid"><path
         transform="scale(0.5)"
         style="fill:context-stroke;fill-rule:evenodd;stroke:context-stroke;stroke-width:1pt"
         d="m 6,0 c -3,1 -7,3 -9,5 0,0 0,-4 2,-5 -2,-1 -2,-5 -2,-5 2,2 6,4 9,5 z"
         id="path8893" /></marker><inkscape:path-effect
       effect="bspline"
       id="path-effect10364"
       is_visible="true"
       lpeversion="1"
       weight="33.333333"
       steps="2"
       helper_size="0"
       apply_no_weight="true"
       apply_with_weight="true"
       only_selected="false" /><marker
       style="overflow:visible"
       id="Arrow5-9"
       refX="0"
       refY="0"
       orient="auto-start-reverse"
       inkscape:stockid="Arrow5"
       markerWidth="5.8874264"
       markerHeight="6.6094756"
       viewBox="0 0 5.8874262 6.6094758"
       inkscape:isstock="true"
       inkscape:collect="always"
       preserveAspectRatio="xMidYMid"><path
         transform="scale(0.5)"
         style="fill:context-stroke;fill-rule:evenodd;stroke:context-stroke;stroke-width:1pt"
         d="m 6,0 c -3,1 -7,3 -9,5 0,0 0,-4 2,-5 -2,-1 -2,-5 -2,-5 2,2 6,4 9,5 z"
         id="path8893-2" /></marker><inkscape:path-effect
       effect="bspline"
       id="path-effect10364-0"
       is_visible="true"
       lpeversion="1"
       weight="33.333333"
       steps="2"
       helper_size="0"
       apply_no_weight="true"
       apply_with_weight="true"
       only_selected="false" /></defs><g
     inkscape:label="Ebene 1"
     inkscape:groupmode="layer"
     id="layer1"
     transform="translate(-60.147771,-94.73353)"><path
       style="fill:none;fill-opacity:1;stroke-width:0.264583"
       d="M 56.406446,240.88327 37.912529,140.09142 47.313603,134.23501 V 134.0809"
       id="path14494" /><text
       xml:space="preserve"
       style="font-style:normal;font-variant:normal;font-weight:bold;font-stretch:normal;font-size:18.6278px;font-family:Verdana;-inkscape-font-specification:'Verdana Bold';fill:#1362ad;fill-opacity:1;stroke-width:0.249479"
       x="78.010857"
       y="163.34268"
       id="text275"><tspan
         sodipodi:role="line"
         id="tspan273"
         style="font-style:normal;font-variant:normal;font-weight:bold;font-stretch:normal;font-size:18.6278px;font-family:Arial;-inkscape-font-specification:'Arial Bold';fill:#1362ad;fill-opacity:1;stroke-width:0.249479"
         x="78.010857"
         y="163.34268">sim</tspan></text><text
       xml:space="preserve"
       style="font-style:normal;font-variant:normal;font-weight:bold;font-stretch:normal;font-size:18.6278px;font-family:Arial;-inkscape-font-specification:'Arial Bold';fill:#91c84b;fill-opacity:1;stroke-width:0.249479"
       x="76.873718"
       y="180.76711"
       id="text3546"><tspan
         sodipodi:role="line"
         id="tspan3544"
         style="font-size:18.6278px;fill:#91c84b;fill-opacity:1;stroke-width:0.249479"
         x="76.873718"
         y="180.76711">place</tspan></text><rect
       style="fill:#91c84b;fill-opacity:1;stroke-width:0.249479"
       id="rect6038"
       width="6.8170652"
       height="6.8170652"
       x="122.96277"
       y="149.85252" /><rect
       style="fill:#1362c8;fill-opacity:1;stroke-width:0.249479"
       id="rect6038-5"
       width="6.8170652"
       height="6.8170652"
       x="131.75677"
       y="149.78352" /><rect
       style="fill:#d08f3d;fill-opacity:1;stroke-width:0.249479"
       id="rect6038-0"
       width="6.8170652"
       height="6.8170652"
       x="114.05423"
       y="149.85252" /><path
       style="fill:none;fill-opacity:1;stroke-width:0.264583"
       d="m 60.875809,124.52571 47.930071,-26.816182 47.3136,26.662062"
       id="path14492" /><path
       style="fill:none;fill-opacity:1;stroke:#000000;stroke-width:3.565;stroke-dasharray:none;stroke-opacity:1"
       d="m 61.400179,123.29278 47.159491,-26.507949 47.00537,27.124409 v 0"
       id="path15222" /><path
       style="fill:none;fill-opacity:1;stroke:#000000;stroke-width:3.565;stroke-dasharray:none;stroke-opacity:1"
       d="m 61.421179,181.75726 47.159491,26.50795 47.00537,-27.12441 v 0"
       id="path15222-8" /><rect
       style="fill:none;stroke:#010101;stroke-width:0.2"
       id="rect1636"
       width="20.815493"
       height="25.793112"
       x="82.770828"
       y="118.49158" /><path
       style="fill:none;stroke:#1362ad;stroke-width:1.1;stroke-dasharray:none;stroke-opacity:1"
       d="m 86.695067,121.80751 h 7.692681 v 0.30168"
       id="path2587" /><path
       style="fill:none;stroke:#1362ad;stroke-width:1.1103;stroke-dasharray:none;stroke-opacity:1"
       d="m 86.64722,123.99589 h 10.757268 v 0 0"
       id="path2593" /><path
       style="fill:none;stroke:#1362ad;stroke-width:1.1;stroke-dasharray:none;stroke-opacity:1"
       d="m 90.468466,126.18427 h 6.485987"
       id="path2597" /><ellipse
       id="path2652"
       style="fill:#000000;fill-opacity:1;stroke:#010101;stroke-width:0.291233"
       cx="108.34672"
       cy="120.23928"
       rx="0.016510554"
       ry="0.016925769" /><circle
       id="path3830"
       style="fill:#000000;stroke:#010101;stroke-width:0.264583"
       cx="112.48818"
       cy="125.35341"
       r="0.015187147" /><path
       style="fill:none;stroke:#1362ad;stroke-width:1.1;stroke-dasharray:none;stroke-opacity:1"
       d="m 90.671123,133.2708 h 7.240172"
       id="path2642"
       sodipodi:nodetypes="cc" /><path
       style="fill:none;stroke:#1362ad;stroke-width:1.07969;stroke-dasharray:none;stroke-opacity:1"
       d="m 90.691987,135.53336 h 6.539305 v 0"
       id="path2646" /><path
       style="fill:none;stroke:#1362ad;stroke-width:1.1;stroke-dasharray:none;stroke-opacity:1"
       d="m 90.446105,128.5182 h 7.240172"
       id="path2642-3"
       sodipodi:nodetypes="cc" /><path
       style="fill:none;stroke:#1362ad;stroke-width:1.1;stroke-dasharray:none;stroke-opacity:1"
       d="m 88.784426,130.78076 h 6.78766 v 0"
       id="path2646-6" /><path
       style="fill:none;stroke:#1362ad;stroke-width:1.1;stroke-dasharray:none;stroke-opacity:1"
       d="m 86.371034,138.09758 h 7.240172"
       id="path2642-33"
       sodipodi:nodetypes="cc" /><path
       style="fill:none;stroke:#1362ad;stroke-width:1.1;stroke-dasharray:none;stroke-opacity:1"
       d="m 86.143543,140.36014 h 6.78766 v 0"
       id="path2646-2" /><rect
       style="fill:none;fill-opacity:1;stroke:#010101;stroke-width:0.471737;stroke-dasharray:none"
       id="rect4621"
       width="23.582182"
       height="20.476933"
       x="114.42148"
       y="121.4319" /><path
       d="m 120.65324,122.97748 c 0.0739,0.03 0.12596,0.0961 0.13907,0.17358 l 0.15064,0.89515 c -0.33751,0.15503 -0.62142,0.40739 -0.81117,0.72156 -0.21149,-0.12918 -0.46064,-0.20227 -0.72715,-0.20227 -0.76773,0 -1.39056,0.61687 -1.39056,1.37716 0,0.50926 0.27955,0.9554 0.69527,1.19355 0.0118,0.4562 0.19119,0.87073 0.47945,1.18636 l -0.81117,0.56233 c -0.0653,0.0445 -0.14919,0.0547 -0.22306,0.023 -0.074,-0.0316 -0.12596,-0.0961 -0.13905,-0.17358 l -0.20281,-1.21361 -1.22687,-0.2023 c -0.0782,-0.0126 -0.14486,-0.0646 -0.17528,-0.13762 -0.0305,-0.0732 -0.0218,-0.15644 0.0233,-0.22092 l 0.71846,-1.01566 -0.71846,-1.01564 c -0.0462,-0.0646 -0.055,-0.14781 -0.0233,-0.22093 0.032,-0.0732 0.097,-0.1248 0.17528,-0.1378 l 1.22687,-0.20228 0.20424,-1.21503 c 0.0131,-0.0775 0.0653,-0.14344 0.13906,-0.17359 0.0739,-0.03 0.15789,-0.0214 0.22307,0.0231 l 1.02556,0.71156 1.02555,-0.71156 c 0.0653,-0.0458 0.1492,-0.0547 0.22306,-0.0231 z m -1.24861,2.04852 c 0.1999,0 0.38674,0.0632 0.5374,0.17069 -0.0174,0.059 -0.0319,0.11919 -0.0434,0.18076 -0.54898,0.20946 -0.9734,0.66849 -1.12694,1.23945 -0.18107,-0.16927 -0.29405,-0.40742 -0.29405,-0.67281 0,-0.50638 0.41574,-0.91809 0.92706,-0.91809 z m 1.00527,3.95932 c 0.15933,0.10606 0.20278,0.31991 0.097,0.4777 l -0.46351,0.68858 c -0.10719,0.15781 -0.32301,0.20085 -0.48234,0.0961 -0.15936,-0.10473 -0.20281,-0.31991 -0.097,-0.4777 l 0.46353,-0.68858 c 0.10708,-0.1578 0.32301,-0.20083 0.48236,-0.0961 z m 1.39058,0 c 0.15931,0.10606 0.20279,0.31991 0.097,0.4777 l -0.46352,0.68858 c -0.10708,0.15781 -0.32303,0.20085 -0.48234,0.0961 -0.15933,-0.10473 -0.2028,-0.31991 -0.097,-0.4777 l 0.46351,-0.68858 c 0.10719,-0.1578 0.32303,-0.20083 0.48237,-0.0961 z m 1.39055,0 c 0.15935,0.10606 0.2028,0.31991 0.097,0.4777 l -0.46355,0.68858 c -0.1072,0.15781 -0.32301,0.20085 -0.48235,0.0961 -0.15933,-0.10473 -0.20278,-0.31991 -0.0969,-0.4777 l 0.46354,-0.68858 c 0.10708,-0.1578 0.32301,-0.20083 0.48233,-0.0961 z m 1.3906,0 c 0.15932,0.10606 0.20278,0.31991 0.097,0.4777 l -0.46354,0.68858 c -0.10708,0.15781 -0.32299,0.20085 -0.48233,0.0961 -0.15934,-0.10473 -0.2028,-0.31991 -0.097,-0.4777 l 0.46353,-0.68858 c 0.10718,-0.1578 0.32302,-0.20083 0.48237,-0.0961 z m 1.07914,-1.66551 c 0,0.63406 -0.51858,1.14764 -1.15883,1.14764 h -3.93849 c -0.76773,0 -1.39058,-0.61687 -1.39058,-1.37715 0,-0.68284 0.50117,-1.24805 1.1588,-1.35709 v -0.0187 c 0,-0.76032 0.62287,-1.37717 1.39057,-1.37717 0.50554,0 0.94733,0.26682 1.19068,0.66562 0.18831,-0.1306 0.41718,-0.20658 0.66342,-0.20658 0.64026,0 1.15881,0.51359 1.15881,1.14765 0,0.0847 -0.008,0.16783 -0.0275,0.24672 0.54176,0.0961 0.95314,0.56522 0.95314,1.12898 z"
       id="path4996"
       style="fill:#1362c8;fill-opacity:1;stroke-width:0.0144151" /><path
       d="m 135.40254,129.66447 c 0,2.33837 -1.31093,4.27123 -3.00926,4.56969 -0.11,-1.09919 -0.47415,-2.09135 -1.01186,-2.86737 0.59348,-1.40796 1.72775,-2.361 3.0294,-2.361 h 0.49585 c 0.27429,0 0.49587,0.29435 0.49587,0.65868 z m -7.93376,1.3174 c 0,-0.36433 0.22158,-0.65869 0.49585,-0.65869 h 0.49587 c 1.91681,0 3.47102,2.06459 3.47102,4.61084 v 0.65871 3.29346 c 0,0.36435 -0.22159,0.6587 -0.49587,0.6587 -0.27427,0 -0.49586,-0.29435 -0.49586,-0.6587 v -3.29346 c -1.91681,0 -3.47101,-2.06459 -3.47101,-4.61086 z"
       id="path6828"
       style="fill:#91c84b;fill-opacity:1;stroke-width:0.0178596" /><path
       d="m 121.56656,136.30742 c 0,0.37551 -0.0206,0.73749 -0.0567,1.08256 h -3.17784 c -0.0376,-0.34507 -0.0567,-0.70705 -0.0567,-1.08256 0,-0.3755 0.0206,-0.73749 0.0567,-1.08257 h 3.17784 c 0.0376,0.34508 0.0567,0.70707 0.0567,1.08257 z m 0.49365,-1.08257 h 2.11001 c 0.0908,0.34676 0.13887,0.70875 0.13887,1.08257 0,0.37383 -0.0481,0.7358 -0.13887,1.08256 h -2.11001 c 0.036,-0.34846 0.0548,-0.71042 0.0548,-1.08256 0,-0.37215 -0.0189,-0.7341 -0.0548,-1.08257 z m 1.93004,-0.54126 h -2.0003 c -0.17142,-1.08089 -0.51081,-1.98584 -0.94788,-2.56434 1.3421,0.35013 2.43396,1.31093 2.94646,2.56434 z m -2.55568,0 h -3.02701 c 0.10469,-0.61572 0.26568,-1.16038 0.4628,-1.60186 0.17997,-0.3992 0.38053,-0.68844 0.57419,-0.87112 0.19199,-0.17931 0.3514,-0.23343 0.47651,-0.23343 0.12515,0 0.28455,0.0541 0.47652,0.23343 0.1937,0.18268 0.39424,0.47192 0.5742,0.87112 0.19885,0.43979 0.35824,0.98447 0.46279,1.60186 z m -3.58236,0 h -2.00032 c 0.51423,-1.25341 1.60436,-2.21421 2.94819,-2.56434 -0.43708,0.5785 -0.77646,1.48345 -0.94787,2.56434 z m -2.18028,0.54126 h 2.11001 c -0.036,0.34847 -0.0548,0.71042 -0.0548,1.08257 0,0.37214 0.0189,0.7341 0.0548,1.08256 h -2.11001 c -0.0908,-0.34676 -0.13888,-0.70873 -0.13888,-1.08256 0,-0.37382 0.0481,-0.73581 0.13888,-1.08257 z m 3.19843,4.30656 c -0.19883,-0.43979 -0.35825,-0.98443 -0.4628,-1.60014 h 3.02701 c -0.10469,0.61571 -0.26567,1.16035 -0.46279,1.60014 -0.17996,0.39922 -0.3805,0.68846 -0.5742,0.87114 -0.19197,0.18099 -0.35138,0.23512 -0.47652,0.23512 -0.12513,0 -0.28452,-0.0541 -0.47651,-0.23344 -0.19366,-0.18268 -0.39422,-0.47193 -0.57419,-0.87113 z m -1.01815,-1.60014 c 0.17141,1.08087 0.51079,1.98582 0.94787,2.5643 -1.34383,-0.35013 -2.43396,-1.31091 -2.94819,-2.5643 z m 6.13804,0 c -0.51422,1.25339 -1.60437,2.21417 -2.94648,2.5643 0.4371,-0.57848 0.77476,-1.48343 0.94788,-2.5643 z"
       id="path9074"
       style="fill:#d08f3d;fill-opacity:1;stroke-width:0.0170275" /><path
       style="fill:none;fill-opacity:1;stroke:#010101;stroke-width:0.441274;stroke-dasharray:none;marker-end:url(#Arrow5)"
       d="m 105.85953,129.77845 c 0.86831,-0.72562 1.73662,-1.45124 2.61539,-1.55321 0.87876,-0.10196 1.76773,0.41957 2.65647,0.94097"
       id="path10362"
       inkscape:path-effect="#path-effect10364"
       inkscape:original-d="m 105.85953,129.77845 c 0.8685,-0.7254 1.73681,-1.45102 2.60492,-2.17685 0.88918,0.52176 1.77815,1.04329 2.66694,1.56461" /><path
       style="fill:none;fill-opacity:1;stroke:#010101;stroke-width:0.441274;stroke-dasharray:none;marker-end:url(#Arrow5-9)"
       d="m 112.52349,132.85801 c -0.86832,0.72562 -1.73662,1.45123 -2.61538,1.55319 -0.87877,0.10197 -1.76773,-0.41956 -2.65647,-0.94096"
       id="path10362-7"
       inkscape:path-effect="#path-effect10364-0"
       inkscape:original-d="m 112.52349,132.85801 c -0.8685,0.7254 -1.7368,1.45101 -2.60492,2.17684 -0.88918,-0.52176 -1.77815,-1.04329 -2.66693,-1.56461" /></g></svg>
